<svg width="32" height="32" viewBox="0 0 32 32" fill="none" xmlns="http://www.w3.org/2000/svg">
<path d="M15.9999 2.667C8.65687 2.694 2.71387 8.653 2.71387 16C2.71387 21.599 6.16587 26.393 11.0569 28.368L11.1459 28.4C11.0129 27.347 10.9189 25.733 11.1859 24.573L12.7459 17.946C12.7459 17.946 12.3459 17.146 12.3459 15.973C12.3459 14.12 13.4259 12.746 14.7729 12.746C15.9059 12.746 16.4659 13.599 16.4659 14.613C16.4659 15.76 15.7329 17.466 15.3459 19.053C15.0259 20.386 16.0129 21.466 17.3329 21.466C19.7059 21.466 21.5199 18.973 21.5199 15.373C21.5199 12.173 19.2269 9.96 15.9469 9.96C15.8709 9.956 15.7829 9.954 15.6939 9.954C12.5049 9.954 9.92087 12.539 9.92087 15.727C9.92087 15.729 9.92087 15.731 9.92087 15.733C9.92087 16.88 10.3609 18.106 10.9079 18.773C11.0149 18.906 11.0279 19.026 10.9879 19.16L10.6149 20.667C10.5619 20.907 10.4149 20.974 10.1749 20.854C8.49487 20.067 7.45487 17.654 7.45487 15.681C7.45487 11.481 10.5219 7.628 16.2819 7.628C20.8949 7.628 24.5089 10.908 24.5089 15.321C24.5089 19.921 21.6019 23.614 17.5759 23.614C16.2429 23.614 14.9629 22.907 14.5359 22.081L13.6959 25.241C13.2649 26.578 12.7039 27.739 12.0079 28.804L12.0419 28.748C13.2119 29.12 14.5579 29.335 15.9529 29.335C23.3169 29.335 29.2859 23.365 29.2859 16.002C29.2859 8.655 23.3439 2.696 16.0039 2.669H16.0009L15.9999 2.667Z" fill="#4B4C2C"/>
</svg>
