<svg width="32" height="32" viewBox="0 0 32 32" fill="none" xmlns="http://www.w3.org/2000/svg">
<path d="M29.333 7.84C28.333 8.333 27.333 8.507 26.16 8.667C27.333 8 28.16 7 28.493 5.667C27.488 6.275 26.317 6.738 25.07 6.989L25 7.001C23.969 5.987 22.56 5.355 21.004 5.334H21C18.16 5.334 15.667 7.841 15.667 10.841C15.667 11.334 15.667 11.668 15.84 12.001C11.262 11.823 7.22097 9.664 4.52897 6.362L4.50697 6.334C4.08197 7.06 3.83097 7.932 3.83097 8.863C3.83097 8.972 3.83397 9.081 3.84097 9.189L3.83997 9.174C3.87397 11.052 4.84897 12.695 6.31297 13.655L6.33397 13.668C5.49397 13.668 4.66697 13.335 3.82697 13.001C3.82697 15.668 5.66697 17.841 8.15997 18.334C7.66697 18.507 7.15997 18.507 6.66697 18.507C6.33397 18.507 5.99997 18.507 5.66697 18.334C6.33397 20.507 8.33397 22.174 10.84 22.174C9.03997 23.629 6.72397 24.509 4.20297 24.509C4.13197 24.509 4.06097 24.508 3.98997 24.507H4.00097H2.66797C5.03297 26.016 7.90397 26.936 10.984 27H11.001C21.001 27 26.508 18.667 26.508 11.493V10.826C27.655 10.036 28.601 9.039 29.311 7.882L29.335 7.84H29.333Z" fill="#4B4C2C"/>
</svg>
